# xmcd
#
# Track frame offsets: 
#        150
#        10825
#        24805
#        39790
#        55795
#        71360
#        86945
#        105755
#        125490
#        136905
#        152525
#        167100
#        179115
#        191855
#        207835
#        221685
#        244795
#
# Disc length: 3515 seconds
#
# Revision: 7
# Processed by: cddbd v1.5.2PL0 Copyright (c) Steve Scherf et al.
# Submitted via: ExactAudioCopy v0.99pb5
#
DISCID=e00db911
DTITLE=Various Artist - Motown Meets The Beatles
DYEAR=2001
DGENRE=Soul
TTITLE0=Supremes - A Hard Day's Night
TTITLE1=Four Tops - Eleanor Rigby
TTITLE2=Stevie Wonder - We Can Work It Out
TTITLE3=Temptations - Hey Jude
TTITLE4=Marvin Gaye - Yesterday
TTITLE5=Diana Ross - Long And Winding Road
TTITLE6=Supremes - Come Together
TTITLE7=Syreeta - She's Leaving Home
TTITLE8=Supremes - You Can't Do That
TTITLE9=Four Tops - Fool On The Hill
TTITLE10=Four Tops - Michelle
TTITLE11=Smokey Robinson - And I Love Her
TTITLE12=Martha Reeves - Something
TTITLE13=Gladys Knight - Let It Be
TTITLE14=Diana Ross - Imagine
TTITLE15=Jr. Walker - My Love
TTITLE16=Edwin Starr - My Sweet Lord
EXTD=Artist name corrections
EXTT0=
EXTT1=
EXTT2=
EXTT3=
EXTT4=
EXTT5=
EXTT6=
EXTT7=
EXTT8=
EXTT9=
EXTT10=
EXTT11=
EXTT12=
EXTT13=
EXTT14=
EXTT15=
EXTT16=
PLAYORDER=
